# xmcd
#
# Track frame offsets:
# 150
# 26076
# 41591
# 61443
# 84651
# 96541
# 110899
# 131127
# 143477
# 162827
# 187294
# 212234
# 244921
# 270440
#
# Disc length: 3801 seconds
#
#
# Revision: 0
# Processed by: cddbd v1.5.2PL0 Copyright (c) Steve Scherf et al.
# Submitted via: Nero 7, 11, 10, 0 
#
DISCID=d80ed70e
DTITLE=Guitar Mac and His Blues Express - Sizzle
DYEAR=2000
DGENRE=Blues
TTITLE0=Don't You Lie To Me
TTITLE1=Bumpty Bump
TTITLE2=No Matter How
TTITLE3=Mean Woman Blues
TTITLE4=Taxi Blues
TTITLE5=Half That Woman
TTITLE6=My Baby Gone
TTITLE7=All Night And All Day
TTITLE8=Kansas City
TTITLE9=Stepping Up In Class
TTITLE10=That's All Right Mama
TTITLE11=Jelly Roll
TTITLE12=Why I Sing The Blues
TTITLE13=Look On Yonder Wall
EXTD=
EXTT0=Don't You Lie To Me
EXTT1=Bumpty Bump
EXTT2=No Matter How
EXTT3=Mean Woman Blues
EXTT4=Taxi Blues
EXTT5=Half That Woman
EXTT6=My Baby Gone
EXTT7=All Night And All Day
EXTT8=Kansas City
EXTT9=Stepping Up In Class
EXTT10=That's All Right Mama
EXTT11=Jelly Roll
EXTT12=Why I Sing The Blues
EXTT13=Look On Yonder Wall
PLAYORDER=
